<?xml version="1.0" standalone="no"?>
<!DOCTYPE svg PUBLIC "-//W3C//DTD SVG 20010904//EN"
 "http://www.w3.org/TR/2001/REC-SVG-20010904/DTD/svg10.dtd">
<svg version="1.0" xmlns="http://www.w3.org/2000/svg"
 width="782.000000pt" height="251.000000pt" viewBox="0 0 782.000000 251.000000"
 preserveAspectRatio="xMidYMid meet">

<g transform="translate(0.000000,251.000000) scale(0.100000,-0.100000)"
fill="#000000" stroke="none">
<path d="M6240 2450 l0 -60 730 0 730 0 0 -515 0 -515 60 0 60 0 0 575 0 575
-790 0 -790 0 0 -60z"/>
<path d="M2791 2172 l-105 -3 65 -42 64 -43 170 12 c195 14 422 18 411 7 -4
-5 -105 -28 -224 -53 -236 -49 -246 -54 -182 -98 31 -21 43 -23 105 -19 57 4
431 82 444 93 2 2 -17 32 -43 68 l-46 64 -82 6 c-107 7 -443 12 -577 8z"/>
<path d="M4294 2148 c-39 -45 -76 -110 -67 -119 14 -14 402 -99 451 -99 45 0
89 18 111 44 18 22 -4 29 -224 77 -99 22 -189 43 -200 48 -29 14 183 12 400
-3 l180 -12 65 43 65 43 -381 0 -381 0 -19 -22z"/>
<path d="M4138 1949 c-10 -5 -18 -14 -18 -19 0 -10 316 -115 377 -125 29 -4
50 -2 72 10 64 33 33 49 -200 104 -188 44 -204 46 -231 30z"/>
<path d="M3415 1926 c-146 -31 -249 -67 -253 -87 -4 -24 48 -42 100 -34 56 9
306 92 336 111 60 39 -21 44 -183 10z"/>
<path d="M3595 1839 c-136 -51 -275 -111 -275 -119 0 -14 109 -32 153 -25 67
10 166 45 251 87 l80 40 -40 24 c-50 30 -71 30 -169 -7z"/>
<path d="M3992 1850 c-19 -12 -30 -25 -26 -31 11 -18 164 -87 229 -104 62 -16
134 -18 199 -7 31 6 36 9 25 18 -34 28 -334 144 -372 144 -12 0 -37 -9 -55
-20z"/>
<path d="M0 675 l0 -675 795 0 796 0 -3 62 -3 63 -727 3 -728 2 0 610 0 610
-65 0 -65 0 0 -675z"/>
<path d="M824 1326 c-3 -8 43 -148 102 -310 l108 -296 73 0 c71 0 74 1 84 28
6 15 55 151 110 302 72 201 95 276 86 282 -7 4 -39 8 -72 8 l-60 0 -70 -217
c-37 -120 -71 -221 -75 -225 -3 -4 -37 92 -76 215 l-71 222 -67 3 c-51 2 -68
0 -72 -12z"/>
<path d="M1475 1327 c-3 -7 -4 -147 -3 -312 l3 -300 68 -3 67 -3 0 316 0 315
-65 0 c-44 0 -67 -4 -70 -13z"/>
<path d="M1947 1329 c-91 -14 -178 -85 -221 -178 -15 -34 -21 -67 -21 -121 0
-65 4 -84 33 -142 37 -75 73 -110 151 -146 104 -48 245 -26 328 51 24 22 43
45 43 52 0 7 -24 25 -54 41 l-54 28 -27 -26 c-52 -52 -148 -62 -204 -21 -96
70 -91 254 9 321 51 35 125 27 181 -17 36 -30 43 -32 69 -21 15 6 38 23 51 36
l23 24 -38 39 c-68 70 -161 98 -269 80z"/>
<path d="M2300 1275 l0 -65 95 0 95 0 0 -250 0 -251 68 3 67 3 3 247 2 247 98
3 97 3 0 60 0 60 -262 3 -263 2 0 -65z"/>
<path d="M3080 1325 c-72 -20 -127 -59 -168 -119 -112 -168 -60 -374 120 -468
34 -17 59 -22 123 -22 96 0 157 27 222 97 69 74 78 99 78 207 0 84 -3 101 -27
146 -67 127 -215 195 -348 159z m151 -137 c48 -27 89 -102 89 -163 0 -51 -41
-137 -78 -161 -39 -26 -132 -25 -168 2 -50 37 -67 70 -72 134 -6 88 17 144 76
181 55 35 100 37 153 7z"/>
<path d="M3560 1026 l0 -316 70 0 70 0 0 100 0 100 43 0 c52 0 75 -21 136
-127 l42 -73 69 0 c88 0 88 4 15 126 -30 51 -55 96 -55 100 0 3 16 24 34 45
66 72 71 180 13 266 -49 72 -75 80 -269 89 l-168 7 0 -317z m305 162 c42 -37
35 -121 -12 -139 -13 -5 -53 -9 -89 -9 l-64 0 0 85 0 85 69 0 c58 0 74 -4 96
-22z"/>
<path d="M4082 1332 c-9 -7 15 -61 98 -214 l110 -206 0 -101 0 -102 68 3 67 3
5 120 6 120 101 185 c68 125 97 187 89 192 -6 4 -39 8 -74 8 l-63 0 -68 -142
-68 -143 -72 143 -71 142 -58 0 c-31 0 -63 -4 -70 -8z"/>
<path d="M4923 1330 c-149 -31 -249 -192 -223 -358 25 -156 170 -277 308 -257
63 8 140 46 181 89 49 50 34 66 -19 21 -100 -84 -193 -104 -285 -61 -57 26
-94 66 -131 137 -20 40 -24 63 -24 131 0 100 19 146 89 211 97 91 216 88 333
-6 50 -40 61 -27 17 19 -59 63 -157 92 -246 74z"/>
<path d="M5550 1330 c-85 -16 -162 -72 -205 -151 -28 -50 -30 -62 -30 -154 0
-85 3 -106 23 -142 58 -109 144 -166 253 -167 204 -3 336 209 264 423 -41 125
-183 214 -305 191z m107 -35 c62 -18 134 -80 162 -138 63 -131 13 -314 -104
-383 -101 -58 -226 -37 -305 53 -129 147 -70 405 106 468 51 18 79 18 141 0z"/>
<path d="M6020 1025 l0 -318 142 7 c196 9 260 40 319 157 24 49 29 70 29 132
0 137 -39 229 -120 285 -47 32 -88 40 -237 48 l-133 7 0 -318z m326 249 c137
-70 184 -265 99 -409 -54 -92 -130 -125 -292 -125 l-103 0 0 254 c0 139 3 268
6 286 l7 32 113 -4 c101 -4 119 -7 170 -34z"/>
<path d="M6650 1025 l0 -315 139 0 c76 0 167 3 202 7 l64 7 -45 7 c-25 4 -109
8 -187 8 l-143 1 0 135 0 135 123 1 c67 0 140 3 162 8 l40 7 -49 7 c-27 4
-103 7 -169 7 l-119 0 6 31 c3 17 6 78 6 135 l0 104 148 1 c81 0 165 3 187 8
40 7 40 7 -24 14 -35 4 -126 7 -202 7 l-139 0 0 -315z"/>
</g>
</svg>
